<svg width="57" height="51" viewBox="0 0 57 51" fill="none" xmlns="http://www.w3.org/2000/svg">
<path d="M2.7695 36.9116C5.9478 31.419 9.09524 25.911 12.289 20.4184C14.8655 16.0058 20.4507 16.0212 23.0427 20.4338C26.2365 25.911 29.4148 31.419 32.5622 36.927C34.6142 40.5373 32.9788 44.8419 29.2142 45.9528C28.1805 46.2614 27.2702 46.1688 26.3445 45.4436C23.7524 43.4225 21.0679 41.4785 18.445 39.4573C17.8279 38.9945 17.4267 39.0099 16.8404 39.4882C14.2175 41.4939 11.533 43.4379 8.92554 45.4899C8.0461 46.1688 7.18209 46.2768 6.19466 45.9991C3.64894 45.3511 1.85921 42.8979 1.87464 40.0899C1.81292 38.9328 2.19864 37.899 2.7695 36.9116Z" fill="white"/>
<path d="M31.8525 5.36004C35.5245 11.6858 39.2428 17.9807 42.8068 24.3527C45.368 28.9659 48.1297 33.471 50.6755 38.0842C52.388 41.1853 51.0149 44.6876 48.0063 45.9682C45.476 47.0482 42.1743 45.8756 40.8011 43.4996C36.9594 36.819 33.0405 30.2002 29.2297 23.4887C26.5605 18.783 23.8142 14.1389 21.1605 9.4332C19.1085 5.74576 22.4411 0.762303 26.3599 1.64174C29.2605 1.16345 30.6028 3.23089 31.8525 5.36004Z" fill="white"/>
</svg>
