<svg width="36" height="36" viewBox="0 0 36 36" fill="none" xmlns="http://www.w3.org/2000/svg">
<path d="M31.86 9.40321C30.8221 9.86303 29.7211 10.1647 28.5937 10.2982C29.7812 9.58768 30.6698 8.46966 31.0939 7.15249C29.9778 7.81509 28.7564 8.28167 27.4828 8.53201C26.9506 7.96444 26.3076 7.51221 25.5935 7.20332C24.8795 6.89444 24.1096 6.73549 23.3316 6.73633C20.191 6.73633 17.6443 9.28225 17.6443 12.4236C17.6443 12.8689 17.6947 13.3035 17.7919 13.72C13.0651 13.4827 8.87472 11.2183 6.0696 7.77709C5.56382 8.64507 5.29805 9.63198 5.29956 10.6366C5.29881 11.5729 5.52937 12.495 5.97076 13.3208C6.41214 14.1466 7.05068 14.8506 7.82964 15.3702C6.92665 15.3415 6.04356 15.0976 5.25384 14.6589C5.25312 14.6826 5.25312 14.706 5.25312 14.7305C5.25312 17.4852 7.21332 19.7838 9.81468 20.3069C8.97705 20.5336 8.09881 20.5669 7.24644 20.4041C7.97004 22.6631 10.0703 24.3079 12.559 24.354C10.5444 25.935 8.05662 26.7925 5.49576 26.7887C5.03676 26.7887 4.58424 26.7621 4.13892 26.7091C6.73932 28.38 9.76577 29.2668 12.8567 29.2637C23.3176 29.2637 29.038 20.5981 29.038 13.0835C29.038 12.8373 29.0322 12.5914 29.0214 12.3469C30.1354 11.5427 31.0967 10.5457 31.86 9.40321Z" fill="white" fill-opacity="0.85"/>
</svg>
